<?xml version="1.0" standalone="no"?><!DOCTYPE svg PUBLIC "-//W3C//DTD SVG 1.1//EN" "http://www.w3.org/Graphics/SVG/1.1/DTD/svg11.dtd"><svg t="1584100764846" class="icon" viewBox="0 0 1028 1024" version="1.1" xmlns="http://www.w3.org/2000/svg" p-id="727" xmlns:xlink="http://www.w3.org/1999/xlink" width="200.78125" height="200"><defs><style type="text/css"></style></defs><path d="M517.157257 878.87318592c-47.50129189 0-93.58976057-9.30686128-136.98663441-27.66151635-41.90723438-17.72581284-79.54135493-43.09789153-111.85554802-75.41208463-32.3141931-32.31494627-57.68702567-69.94831437-75.41208535-111.8563019-18.35540751-43.39536825-27.66151563-89.48458935-27.66151564-136.98588125 0-56.06559258 12.79749896-109.66175642 38.03853793-159.29960451 24.06694997-47.33033736 59.2256172-89.3317093 101.67433324-121.4628987 6.6310822-5.02019269 16.07952678-3.71355692 21.09971947 2.91903234 5.02094512 6.63258853 3.71430936 16.07952678-2.9190316 21.10047191C241.93609489 331.67598666 195.36563947 425.25520363 195.36563947 526.95740179c0 177.43661175 144.35575896 321.79161754 321.79161753 321.79161753s321.79086436-144.35500579 321.79086437-321.79161753c0-96.86425747-43.03086569-187.65623573-118.05886695-249.09748558-6.43602787-5.27097611-7.38042056-14.76084185-2.11019833-21.19611653 5.27022295-6.43602787 14.75858235-7.38117372 21.1968697-2.11019761 82.04241439 67.18592863 129.09636217 166.47367471 129.09636217 272.40379972 0 47.50129189-9.30610812 93.59051372-27.66076245 136.98588125-17.72581284 41.90723438-43.09864469 79.54135493-75.41283852 111.8563019-32.3141931 32.3141931-69.94831437 57.68702567-111.85554802 75.41208464-43.39536825 18.35465434-89.48383617 27.66151563-136.98588197 27.66151634z" p-id="728"></path><path d="M517.157257 550.90008906c-8.31878867 0-15.06208294-6.74329499-15.06208293-15.06208293V164.48987575c0-8.31878867 6.74329499-15.06208294 15.06208293-15.06208368s15.06208294 6.74329499 15.06208367 15.06208367V535.83800613c0 8.31878867-6.74329499 15.06208294-15.06208367 15.06208293z" p-id="729"></path></svg>